<?xml version="1.0" encoding="utf-8"?><!-- Uploaded to: SVG Repo, www.svgrepo.com, Generator: SVG Repo Mixer Tools -->
<svg width="800px" height="800px" viewBox="0 0 24 24" fill="none" xmlns="http://www.w3.org/2000/svg">
<path fill-rule="evenodd" clip-rule="evenodd" d="M18.5243 12.0005C18.5243 15.8665 15.4687 19.0005 11.6993 19.0005C11.6993 15.6865 12.6743 11.5005 17.5493 11.0005H18.4551C18.5013 11.3317 18.5244 11.6659 18.5243 12.0005V12.0005Z" stroke="#000000" stroke-width="1.5" stroke-linecap="round" stroke-linejoin="round"/>
<path d="M5.92587 10.2543C5.51382 10.2121 5.14552 10.5119 5.10326 10.9239C5.061 11.336 5.36078 11.7043 5.77283 11.7465L5.92587 10.2543ZM11.6993 19.0004L11.6993 19.7504C11.8982 19.7505 12.089 19.6714 12.2296 19.5308C12.3703 19.3901 12.4493 19.1994 12.4493 19.0004H11.6993ZM4.88289 12.3342L4.1337 12.3691L4.88289 12.3342ZM11.0491 5.03234L10.9758 4.28594L11.0491 5.03234ZM17.7124 11.1049C17.7702 11.5151 18.1495 11.8008 18.5596 11.7431C18.9698 11.6854 19.2555 11.3061 19.1978 10.8959L17.7124 11.1049ZM5.84935 11.7504C6.26356 11.7504 6.59935 11.4146 6.59935 11.0004C6.59935 10.5862 6.26356 10.2504 5.84935 10.2504V11.7504ZM4.94357 10.2504C4.52936 10.2504 4.19357 10.5862 4.19357 11.0004C4.19357 11.4146 4.52936 11.7504 4.94357 11.7504V10.2504ZM5.84935 10.2504C5.43514 10.2504 5.09935 10.5862 5.09935 11.0004C5.09935 11.4146 5.43514 11.7504 5.84935 11.7504V10.2504ZM17.5493 11.7504C17.9636 11.7504 18.2993 11.4146 18.2993 11.0004C18.2993 10.5862 17.9636 10.2504 17.5493 10.2504V11.7504ZM5.77283 11.7465C7.96327 11.9712 9.21227 12.9978 9.94811 14.3117C10.7101 15.6722 10.9493 17.3973 10.9493 19.0004H12.4493C12.4493 17.2895 12.2011 15.2646 11.2568 13.5787C10.2864 11.846 8.61043 10.5297 5.92587 10.2543L5.77283 11.7465ZM11.6994 18.2504C8.47411 18.2501 5.78794 15.6476 5.63208 12.2994L4.1337 12.3691C4.32526 16.4842 7.63958 19.75 11.6993 19.7504L11.6994 18.2504ZM5.63208 12.2994C5.47617 8.95004 7.91012 6.09445 11.1225 5.77875L10.9758 4.28594C6.93637 4.68292 3.9422 8.25515 4.1337 12.3691L5.63208 12.2994ZM11.1225 5.77875C14.3322 5.46331 17.2458 7.78918 17.7124 11.1049L19.1978 10.8959C18.6237 6.8165 15.0179 3.8887 10.9758 4.28594L11.1225 5.77875ZM5.84935 10.2504H4.94357V11.7504H5.84935V10.2504ZM5.84935 11.7504H17.5493V10.2504H5.84935V11.7504Z" fill="#000000"/>
</svg>